<svg width="6" height="19" viewBox="0 0 6 19" fill="none" xmlns="http://www.w3.org/2000/svg">
<path d="M6 16.0312C6 17.6682 4.6542 19 3 19C1.3458 19 0 17.6682 0 16.0312C0 14.3943 1.3458 13.0625 3 13.0625C4.6542 13.0625 6 14.3943 6 16.0312ZM0.34725 0.935119L0.85725 11.0289C0.881213 11.5029 1.27654 11.875 1.75613 11.875H4.24388C4.72346 11.875 5.11879 11.5029 5.14275 11.0289L5.65275 0.935119C5.67844 0.426387 5.2686 0 4.75388 0H1.24613C0.7314 0 0.321563 0.426387 0.34725 0.935119Z" fill="white"/>
</svg>
