<svg width="18" height="15" viewBox="0 0 18 15" fill="none" xmlns="http://www.w3.org/2000/svg">
<path d="M17.7509 8.16354L11.7506 14.7249C11.2148 15.3108 10.2862 14.9007 10.2862 14.061V10.3116H5.42884C4.95382 10.3116 4.57166 9.89372 4.57166 9.37427V5.6249C4.57166 5.10545 4.95382 4.68755 5.42884 4.68755H10.2862V0.938175C10.2862 0.102376 11.2113 -0.311617 11.7506 0.274223L17.7509 6.83563C18.083 7.20276 18.083 7.79641 17.7509 8.16354ZM6.85748 14.5297V12.9674C6.85748 12.7097 6.66462 12.4988 6.42889 12.4988H3.42874C2.79657 12.4988 2.28583 11.9403 2.28583 11.249V3.75021C2.28583 3.05892 2.79657 2.50042 3.42874 2.50042H6.42889C6.66462 2.50042 6.85748 2.28951 6.85748 2.03174V0.469503C6.85748 0.211733 6.66462 0.000830666 6.42889 0.000830666H3.42874C1.53579 0.000830666 0 1.68024 0 3.75021V11.249C0 13.3189 1.53579 14.9983 3.42874 14.9983H6.42889C6.66462 14.9983 6.85748 14.7874 6.85748 14.5297Z" fill="#BE58CF"/>
</svg>
